<svg width="212" height="40" viewBox="0 0 212 40" fill="none" xmlns="http://www.w3.org/2000/svg">
<rect width="212" height="40" rx="5" fill="black" fill-opacity="0.5" style="mix-blend-mode:overlay"/>
<g clip-path="url(#clip0_39_76)">
<path d="M26.625 18.3125C26.625 19.9262 26.1012 21.4168 25.2188 22.6262L29.6695 27.0805C30.109 27.5199 30.109 28.2336 29.6695 28.673C29.2301 29.1125 28.5164 29.1125 28.077 28.673L23.6262 24.2188C22.4168 25.1047 20.9262 25.625 19.3125 25.625C15.273 25.625 12 22.352 12 18.3125C12 14.273 15.273 11 19.3125 11C23.352 11 26.625 14.273 26.625 18.3125ZM19.3125 23.375C19.9773 23.375 20.6356 23.2441 21.2498 22.9896C21.864 22.7352 22.4221 22.3623 22.8922 21.8922C23.3623 21.4221 23.7352 20.864 23.9896 20.2498C24.2441 19.6356 24.375 18.9773 24.375 18.3125C24.375 17.6477 24.2441 16.9894 23.9896 16.3752C23.7352 15.761 23.3623 15.2029 22.8922 14.7328C22.4221 14.2627 21.864 13.8898 21.2498 13.6354C20.6356 13.3809 19.9773 13.25 19.3125 13.25C18.6477 13.25 17.9894 13.3809 17.3752 13.6354C16.761 13.8898 16.2029 14.2627 15.7328 14.7328C15.2627 15.2029 14.8898 15.761 14.6354 16.3752C14.3809 16.9894 14.25 17.6477 14.25 18.3125C14.25 18.9773 14.3809 19.6356 14.6354 20.2498C14.8898 20.864 15.2627 21.4221 15.7328 21.8922C16.2029 22.3623 16.761 22.7352 17.3752 22.9896C17.9894 23.2441 18.6477 23.375 19.3125 23.375Z" fill="white" fill-opacity="0.5"/>
</g>
<defs>
<clipPath id="clip0_39_76">
<rect width="18" height="18" fill="white" transform="translate(12 11)"/>
</clipPath>
</defs>
</svg>
