<svg width="27" height="27" viewBox="0 0 27 27" fill="none" xmlns="http://www.w3.org/2000/svg">
<path d="M12.1111 1H14.8889C15.656 1 16.2778 1.62183 16.2778 2.38889V3.17887C16.2778 3.77304 16.6765 4.28924 17.2253 4.51706C17.7743 4.74497 18.4135 4.65811 18.8337 4.23782L19.3925 3.67904C19.9349 3.13664 20.8143 3.13664 21.3567 3.67904L23.3208 5.64322C23.8633 6.18562 23.8632 7.06501 23.3208 7.60742L22.7622 8.16611C22.3418 8.58643 22.255 9.22565 22.4829 9.77464C22.7107 10.3234 23.2269 10.7222 23.8212 10.7222H24.6111C25.3782 10.7222 26 11.344 26 12.1111V14.8889C26 15.656 25.3782 16.2778 24.6111 16.2778H23.8211C23.2269 16.2778 22.7108 16.6765 22.4829 17.2253C22.255 17.7743 22.3418 18.4135 22.7622 18.8337L23.3208 19.3925C23.8633 19.9349 23.8633 20.8143 23.3208 21.3567L21.3567 23.3208C20.8143 23.8633 19.9349 23.8633 19.3925 23.3208L18.8337 22.7622C18.4135 22.3418 17.7743 22.255 17.2253 22.4829C16.6765 22.7108 16.2778 23.2269 16.2778 23.8211V24.6111C16.2778 25.3782 15.656 26 14.8889 26H12.1111C11.344 26 10.7222 25.3782 10.7222 24.6111V23.8212C10.7222 23.2269 10.3234 22.7107 9.77464 22.4829C9.22565 22.255 8.58643 22.3418 8.16611 22.7622L7.60739 23.3208C7.06499 23.8633 6.1856 23.8633 5.64321 23.3208L3.67901 21.3567C3.13663 20.8143 3.13663 19.9349 3.67901 19.3925L4.23782 18.8337C4.65811 18.4135 4.74497 17.7743 4.51706 17.2253C4.28924 16.6765 3.77304 16.2778 3.17887 16.2778H2.38889C1.62183 16.2778 1 15.656 1 14.8889V12.1111C1 11.344 1.62183 10.7222 2.38889 10.7222H3.17885C3.77303 10.7222 4.28924 10.3234 4.51707 9.77467C4.745 9.22569 4.65814 8.58651 4.23782 8.16619L3.67904 7.60742C3.13664 7.06501 3.13664 6.18562 3.67904 5.64324L5.64322 3.67904C6.18562 3.13665 7.06501 3.13665 7.60742 3.67904L8.16619 4.23782C8.5865 4.65814 9.22569 4.745 9.77467 4.51707C10.3234 4.28924 10.7222 3.77303 10.7222 3.17883V2.38889C10.7222 1.62183 11.344 1 12.1111 1Z" stroke="white" stroke-width="1.5"/>
<path d="M16.2777 13.4999C16.2777 15.0341 15.0341 16.2777 13.4999 16.2777C11.9658 16.2777 10.7222 15.0341 10.7222 13.4999C10.7222 11.9658 11.9658 10.7222 13.4999 10.7222C15.0341 10.7222 16.2777 11.9658 16.2777 13.4999Z" stroke="white" stroke-width="1.5"/>
</svg>
