<svg width="1920" height="1150" viewBox="0 0 1920 1150" fill="none" xmlns="http://www.w3.org/2000/svg">
<rect width="1920" height="1150" fill="#081438"/>
<path d="M539.355 134.633L1462.53 551.043L1448.78 742.306L526.833 313.621L539.355 134.633Z" fill="url(#paint0_linear_714_3067)" fill-opacity="0.3"/>
<path d="M539.385 178.092L1462.56 594.502L1448.81 742.553L526.864 313.867L539.385 178.092Z" fill="url(#paint1_linear_714_3067)" fill-opacity="0.2"/>
<path d="M780.27 600.039L873.907 633.665L874.25 475.898L780.27 431.68V600.039Z" fill="url(#paint2_linear_714_3067)" fill-opacity="0.8"/>
<path d="M874.251 642.58L727.919 729.787V406.922L874.251 475.914V642.58Z" fill="url(#paint3_linear_714_3067)" fill-opacity="0.8"/>
<g style="mix-blend-mode:lighten">
<ellipse cx="912.489" cy="759.938" rx="400.49" ry="193.429" fill="url(#paint4_radial_714_3067)" fill-opacity="0.6"/>
</g>
<path d="M780.277 600.05L727.919 729.787V406.922L780.277 431.67V600.05Z" fill="url(#paint5_linear_714_3067)"/>
<path d="M853.547 332.067L873.022 227.934L1061.9 228.364L932.071 339.134L853.547 332.067Z" fill="url(#paint6_linear_714_3067)" fill-opacity="0.8"/>
<g opacity="0.7">
<path d="M932.068 339.131L853.543 332.068L780.271 431.666V600.042L863.192 598.429L931.396 502.063L932.068 339.131Z" fill="url(#paint7_linear_714_3067)"/>
<path d="M932.068 339.131L853.543 332.068L780.271 431.666V600.042L863.192 598.429L931.396 502.063L932.068 339.131Z" fill="url(#paint8_radial_714_3067)"/>
<path d="M932.068 339.131L853.543 332.068L780.271 431.666V600.042L863.192 598.429L931.396 502.063L932.068 339.131Z" fill="url(#paint9_linear_714_3067)"/>
</g>
<path d="M853.542 332.068L947.173 365.695L874.259 475.913L780.284 431.672L853.542 332.068Z" fill="url(#paint10_linear_714_3067)" fill-opacity="0.8"/>
<path d="M931.212 502.137L1025.57 545.364L952.308 637.873L863.194 598.421L931.212 502.137Z" fill="url(#paint11_linear_714_3067)" fill-opacity="0.8"/>
<path d="M853.542 332.07L947.173 365.697L1025.7 372.764L932.064 339.133L853.542 332.07Z" fill="url(#paint12_linear_714_3067)" fill-opacity="0.8"/>
<path d="M780.248 600.028L874.266 642.609L952.413 637.928L863.202 598.43L780.248 600.028Z" fill="url(#paint13_linear_714_3067)"/>
<path d="M947.417 366.164L873.024 227.934L727.919 406.921L874.266 475.898L947.417 366.164Z" fill="url(#paint14_linear_714_3067)" fill-opacity="0.9"/>
<path d="M1025.52 545.397L1061.52 562.215V227.688L1025.62 372.793L1025.52 545.397Z" fill="url(#paint15_linear_714_3067)" fill-opacity="0.9"/>
<path d="M874.251 642.594L727.919 729.786L917.463 757.284L952.267 637.867L874.251 642.594Z" fill="url(#paint16_linear_714_3067)" fill-opacity="0.9"/>
<path d="M1025.55 545.365L1061.51 562.214L917.462 757.283L952.265 637.867L1025.55 545.365Z" fill="url(#paint17_linear_714_3067)"/>
<path d="M947.417 366.164L873.023 227.934H1061.59L1025.62 372.793L947.417 366.164Z" fill="url(#paint18_linear_714_3067)"/>
<path d="M947.417 366.164L873.023 227.934H1061.59L1025.62 372.793L947.417 366.164Z" fill="url(#paint19_linear_714_3067)" fill-opacity="0.6"/>
<path d="M728.163 730.032L780.337 599.905L874.252 642.595L728.163 730.032Z" fill="url(#paint20_linear_714_3067)"/>
<path d="M540.828 492.21L1464 908.619L1448.78 742.522L526.833 313.836L540.828 492.21Z" fill="url(#paint21_linear_714_3067)" fill-opacity="0.4"/>
<path d="M540.828 453.049L1464 869.458L1448.78 742.522L526.833 313.836L540.828 453.049Z" fill="url(#paint22_linear_714_3067)" fill-opacity="0.3"/>
<g opacity="0.7">
<path d="M1025.7 372.759L947.356 365.698L874.251 475.888V642.595L952.426 637.868L1025.56 545.31L1025.7 372.759Z" fill="url(#paint23_linear_714_3067)"/>
<path d="M1025.7 372.759L947.356 365.698L874.251 475.888V642.595L952.426 637.868L1025.56 545.31L1025.7 372.759Z" fill="url(#paint24_radial_714_3067)"/>
<path d="M1025.7 372.759L947.356 365.698L874.251 475.888V642.595L952.426 637.868L1025.56 545.31L1025.7 372.759Z" fill="url(#paint25_linear_714_3067)"/>
</g>
<defs>
<linearGradient id="paint0_linear_714_3067" x1="661.492" y1="257.129" x2="1358.78" y2="665.683" gradientUnits="userSpaceOnUse">
<stop stop-color="#9492ED" stop-opacity="0"/>
<stop offset="0.546875" stop-color="#7674EC"/>
<stop offset="1" stop-color="#817FDF" stop-opacity="0"/>
</linearGradient>
<linearGradient id="paint1_linear_714_3067" x1="661.522" y1="257.376" x2="1358.81" y2="665.929" gradientUnits="userSpaceOnUse">
<stop stop-color="#232183" stop-opacity="0"/>
<stop offset="0.546875" stop-color="#232183"/>
<stop offset="1" stop-color="#232183" stop-opacity="0"/>
</linearGradient>
<linearGradient id="paint2_linear_714_3067" x1="780.27" y1="468.513" x2="876.629" y2="476.542" gradientUnits="userSpaceOnUse">
<stop stop-color="#548DD1"/>
<stop offset="0.59375" stop-color="#E39DE5"/>
<stop offset="1" stop-color="white"/>
</linearGradient>
<linearGradient id="paint3_linear_714_3067" x1="711.332" y1="542.812" x2="923.173" y2="589.846" gradientUnits="userSpaceOnUse">
<stop offset="0.0340296" stop-color="#2B79ED" stop-opacity="0.8"/>
<stop offset="0.791667" stop-color="#FCA6EF" stop-opacity="0.8"/>
<stop offset="1" stop-color="white"/>
</linearGradient>
<radialGradient id="paint4_radial_714_3067" cx="0" cy="0" r="1" gradientUnits="userSpaceOnUse" gradientTransform="translate(912.489 759.938) rotate(90) scale(193.429 400.49)">
<stop offset="0.0729167" stop-color="white"/>
<stop offset="0.34375" stop-color="#A873FF" stop-opacity="0.8"/>
<stop offset="1" stop-color="#0E7DFF" stop-opacity="0"/>
</radialGradient>
<linearGradient id="paint5_linear_714_3067" x1="780.277" y1="422.993" x2="755.899" y2="675.629" gradientUnits="userSpaceOnUse">
<stop stop-color="#2295D6"/>
<stop offset="1" stop-color="#2249D6" stop-opacity="0.3"/>
</linearGradient>
<linearGradient id="paint6_linear_714_3067" x1="859.967" y1="253.297" x2="932.098" y2="353.133" gradientUnits="userSpaceOnUse">
<stop stop-color="#4B86FA" stop-opacity="0.8"/>
<stop offset="0.534769" stop-color="#FCA6EF" stop-opacity="0.8"/>
<stop offset="0.716558" stop-color="white"/>
</linearGradient>
<linearGradient id="paint7_linear_714_3067" x1="936.978" y1="372.982" x2="675.334" y2="551.964" gradientUnits="userSpaceOnUse">
<stop stop-color="#324BCC"/>
<stop offset="1" stop-color="white" stop-opacity="0.8"/>
</linearGradient>
<radialGradient id="paint8_radial_714_3067" cx="0" cy="0" r="1" gradientUnits="userSpaceOnUse" gradientTransform="translate(858.625 669.209) rotate(-90) scale(206.763 118.96)">
<stop stop-color="#00F0FF"/>
<stop offset="1" stop-color="#00F0FF" stop-opacity="0"/>
</radialGradient>
<linearGradient id="paint9_linear_714_3067" x1="780.271" y1="569.788" x2="858.625" y2="477.47" gradientUnits="userSpaceOnUse">
<stop stop-color="white"/>
<stop offset="1" stop-color="white" stop-opacity="0"/>
</linearGradient>
<linearGradient id="paint10_linear_714_3067" x1="825.272" y1="367.551" x2="904.184" y2="418.612" gradientUnits="userSpaceOnUse">
<stop stop-color="#4078CB"/>
<stop offset="0.59375" stop-color="#E39DE5"/>
<stop offset="1" stop-color="white"/>
</linearGradient>
<linearGradient id="paint11_linear_714_3067" x1="1019.6" y1="552.025" x2="858.665" y2="606.04" gradientUnits="userSpaceOnUse">
<stop stop-color="#4078CB"/>
<stop offset="1" stop-color="#E39DE5"/>
</linearGradient>
<linearGradient id="paint12_linear_714_3067" x1="915.789" y1="337.379" x2="913.968" y2="365.447" gradientUnits="userSpaceOnUse">
<stop stop-color="#4078CB"/>
<stop offset="0.59375" stop-color="#E39DE5"/>
<stop offset="1" stop-color="white"/>
</linearGradient>
<linearGradient id="paint13_linear_714_3067" x1="842.5" y1="602.545" x2="840.679" y2="630.612" gradientUnits="userSpaceOnUse">
<stop stop-color="#4078CB"/>
<stop offset="0.59375" stop-color="#E39DE5"/>
<stop offset="1" stop-color="white"/>
</linearGradient>
<linearGradient id="paint14_linear_714_3067" x1="778.422" y1="337.942" x2="885.567" y2="448.078" gradientUnits="userSpaceOnUse">
<stop offset="0.0729167" stop-color="#4B86FA" stop-opacity="0.8"/>
<stop offset="0.791667" stop-color="#FCA6EF" stop-opacity="0.8"/>
<stop offset="1" stop-color="white"/>
</linearGradient>
<linearGradient id="paint15_linear_714_3067" x1="1068.71" y1="227.688" x2="1151.83" y2="264.739" gradientUnits="userSpaceOnUse">
<stop offset="0.00889157" stop-color="#1D2A9B" stop-opacity="0.8"/>
<stop offset="0.645598" stop-color="#FCA6EF" stop-opacity="0.8"/>
<stop offset="1" stop-color="white"/>
</linearGradient>
<linearGradient id="paint16_linear_714_3067" x1="727.919" y1="714.155" x2="968.998" y2="677.604" gradientUnits="userSpaceOnUse">
<stop offset="0.0340296" stop-color="#4B5CFA" stop-opacity="0.8"/>
<stop offset="0.791667" stop-color="#FCA6EF" stop-opacity="0.8"/>
<stop offset="1" stop-color="white"/>
</linearGradient>
<linearGradient id="paint17_linear_714_3067" x1="1033.35" y1="618.808" x2="981.577" y2="591.293" gradientUnits="userSpaceOnUse">
<stop offset="0.0340296" stop-color="#4B5CFA" stop-opacity="0.8"/>
<stop offset="0.539474" stop-color="#FCA6EF" stop-opacity="0.8"/>
<stop offset="1" stop-color="white"/>
</linearGradient>
<linearGradient id="paint18_linear_714_3067" x1="1055.98" y1="276.754" x2="977.516" y2="389.288" gradientUnits="userSpaceOnUse">
<stop stop-color="#0A3892"/>
<stop offset="0.536458" stop-color="#29B2ED" stop-opacity="0.8"/>
<stop offset="0.967948" stop-color="white"/>
</linearGradient>
<linearGradient id="paint19_linear_714_3067" x1="1023.53" y1="380.159" x2="961.657" y2="270.164" gradientUnits="userSpaceOnUse">
<stop stop-color="#FF439D"/>
<stop offset="1" stop-color="#FF43D6" stop-opacity="0"/>
</linearGradient>
<linearGradient id="paint20_linear_714_3067" x1="770.148" y1="593.275" x2="874.373" y2="664.969" gradientUnits="userSpaceOnUse">
<stop stop-color="#5BE2FF"/>
<stop offset="1" stop-color="#FF93E1" stop-opacity="0.6"/>
</linearGradient>
<linearGradient id="paint21_linear_714_3067" x1="661.492" y1="257.344" x2="1358.78" y2="665.898" gradientUnits="userSpaceOnUse">
<stop stop-color="#232183" stop-opacity="0"/>
<stop offset="0.546875" stop-color="#232183"/>
<stop offset="1" stop-color="#232183" stop-opacity="0"/>
</linearGradient>
<linearGradient id="paint22_linear_714_3067" x1="661.492" y1="257.344" x2="1358.78" y2="665.898" gradientUnits="userSpaceOnUse">
<stop stop-color="#232183" stop-opacity="0"/>
<stop offset="0.546875" stop-color="#8A88EC"/>
<stop offset="1" stop-color="#232183" stop-opacity="0"/>
</linearGradient>
<linearGradient id="paint23_linear_714_3067" x1="1030.6" y1="406.603" x2="769.21" y2="585.043" gradientUnits="userSpaceOnUse">
<stop stop-color="#324BCC"/>
<stop offset="1" stop-color="white" stop-opacity="0.8"/>
</linearGradient>
<radialGradient id="paint24_radial_714_3067" cx="0" cy="0" r="1" gradientUnits="userSpaceOnUse" gradientTransform="translate(952.426 702.765) rotate(-90) scale(206.717 118.689)">
<stop stop-color="#00F0FF"/>
<stop offset="1" stop-color="#00F0FF" stop-opacity="0"/>
</radialGradient>
<linearGradient id="paint25_linear_714_3067" x1="899.093" y1="608.933" x2="963.93" y2="525.602" gradientUnits="userSpaceOnUse">
<stop stop-color="white"/>
<stop offset="1" stop-color="white" stop-opacity="0"/>
</linearGradient>
</defs>
</svg>
