<svg width="242" height="238" viewBox="0 0 242 238" fill="none" xmlns="http://www.w3.org/2000/svg">
<g filter="url(#filter0_d_63_163)">
<g clip-path="url(#clip0_63_163)">
<rect x="21" y="11" width="200" height="200" rx="20" fill="#2C2F48"/>
<rect x="15" y="4" width="210" height="108" fill="#081438"/>
<g opacity="0.1">
<path d="M189.933 51.4498L204.102 44.9373L215.683 51.4632L213.094 64.5017L198.925 71.0142L187.345 64.4883L189.933 51.4498Z" fill="url(#paint0_linear_63_163)"/>
<path d="M204.103 44.9376L165.37 -18.1603L156.841 -14.2399L189.931 51.4494L204.103 44.9376Z" fill="url(#paint1_linear_63_163)"/>
<path d="M187.344 64.488L155.282 -6.39223L156.841 -14.2397L189.931 51.4495L187.344 64.488Z" fill="url(#paint2_linear_63_163)"/>
<path d="M189.931 51.449L198.926 71.014L187.344 64.4874L189.931 51.449Z" fill="url(#paint3_linear_63_163)"/>
<path d="M204.103 44.9375L165.37 -18.1604L172.341 -14.233L215.682 51.4632L204.103 44.9375Z" fill="url(#paint4_linear_63_163)"/>
</g>
<g style="mix-blend-mode:lighten" filter="url(#filter1_f_63_163)">
<ellipse cx="181.491" cy="31.2169" rx="79.8849" ry="38.5829" transform="rotate(-93.3054 181.491 31.2169)" fill="url(#paint5_radial_63_163)" fill-opacity="0.3"/>
</g>
<path d="M178.516 46.1319L165.108 52.628L162.888 65.1335L174.077 71.1429L187.486 64.6469L189.706 52.1414L178.516 46.1319Z" fill="url(#paint6_linear_63_163)"/>
<path d="M165.107 52.6289L142.089 -14.2621L150.16 -18.172L178.517 46.1305L165.107 52.6289Z" fill="url(#paint7_linear_63_163)"/>
<path d="M189.705 52.1409L156.895 -14.5559L150.16 -18.1721L178.517 46.1304L189.705 52.1409Z" fill="url(#paint8_linear_63_163)"/>
<path d="M178.517 46.1307L187.486 64.6476L189.705 52.1412L178.517 46.1307Z" fill="url(#paint9_linear_63_163)"/>
<path d="M165.107 52.6291L142.089 -14.2619L140.752 -6.73443L162.888 65.1337L165.107 52.6291Z" fill="url(#paint10_linear_63_163)"/>
<g filter="url(#filter2_dd_63_163)">
<circle cx="144.901" cy="49.3007" r="6.16287" transform="rotate(-93.3054 144.901 49.3007)" fill="url(#paint11_linear_63_163)" shape-rendering="crispEdges"/>
</g>
<g filter="url(#filter3_dd_63_163)">
<circle cx="124.18" cy="31.6717" r="4.55935" transform="rotate(-93.3054 124.18 31.6717)" fill="url(#paint12_linear_63_163)" shape-rendering="crispEdges"/>
</g>
<circle cx="89.2723" cy="62.1392" r="46.2699" transform="rotate(-93.3054 89.2723 62.1392)" fill="url(#paint13_radial_63_163)" fill-opacity="0.6"/>
<g filter="url(#filter4_d_63_163)">
<ellipse cx="99.0857" cy="52.0392" rx="27.7226" ry="17.3675" transform="rotate(-93.3054 99.0857 52.0392)" fill="url(#paint14_linear_63_163)" fill-opacity="0.5" shape-rendering="crispEdges"/>
<path d="M97.5172 24.8793C102.063 24.6168 106.426 27.3173 109.794 32.0604C113.156 36.7967 115.471 43.5065 115.908 51.0676C116.344 58.6287 114.817 65.5604 112.023 70.6523C109.224 75.7515 105.2 78.9364 100.654 79.199C96.1083 79.4615 91.745 76.761 88.3778 72.0179C85.0155 67.2816 82.7006 60.5718 82.2639 53.0107C81.8272 45.4496 83.3543 38.5179 86.149 33.426C88.9478 28.3268 92.9711 25.1419 97.5172 24.8793Z" stroke="url(#paint15_linear_63_163)" stroke-opacity="0.6" stroke-width="1.03515" shape-rendering="crispEdges"/>
</g>
<circle cx="82.9183" cy="52.9732" r="35.1706" transform="rotate(-93.3054 82.9183 52.9732)" fill="url(#paint16_radial_63_163)"/>
<ellipse cx="88.7237" cy="52.6381" rx="34.3851" ry="20.116" transform="rotate(-93.3054 88.7237 52.6381)" fill="url(#paint17_linear_63_163)" fill-opacity="0.5"/>
<path d="M86.7709 18.8269C92.0572 18.5216 97.1496 21.906 101.091 27.8312C105.025 33.7443 107.746 42.104 108.289 51.5081C108.833 60.9123 107.092 69.5297 103.865 75.8564C100.632 82.1959 95.9627 86.1441 90.6764 86.4494C85.3901 86.7547 80.2977 83.3703 76.356 77.4451C72.4223 71.532 69.701 63.1722 69.1579 53.7681C68.6147 44.364 70.3555 35.7466 73.5824 29.4199C76.8157 23.0804 81.4846 19.1322 86.7709 18.8269Z" stroke="url(#paint18_linear_63_163)" stroke-opacity="0.6" stroke-width="1.03515"/>
<circle cx="82.9181" cy="52.9734" r="26.0515" transform="rotate(-93.3054 82.9181 52.9734)" fill="url(#paint19_radial_63_163)"/>
<circle cx="82.9181" cy="52.9734" r="26.0515" transform="rotate(-93.3054 82.9181 52.9734)" fill="url(#paint20_radial_63_163)"/>
<g filter="url(#filter5_d_63_163)">
<ellipse cx="76.2556" cy="53.358" rx="34.0354" ry="19.6508" transform="rotate(-93.3054 76.2556 53.358)" fill="url(#paint21_linear_63_163)" fill-opacity="0.5" shape-rendering="crispEdges"/>
<path d="M74.323 19.8959C79.4777 19.5982 84.4518 22.946 88.3075 28.8144C92.1545 34.6697 94.8193 42.946 95.357 52.2548C95.8946 61.5637 94.2003 70.0918 91.0529 76.3509C87.8984 82.6242 83.3428 86.5224 78.1881 86.8201C73.0335 87.1178 68.0594 83.77 64.2037 77.9016C60.3567 72.0464 57.6919 63.77 57.1542 54.4612C56.6166 45.1523 58.3109 36.6242 61.4583 30.3651C64.6128 24.0918 69.1684 20.1936 74.323 19.8959Z" stroke="url(#paint22_linear_63_163)" stroke-opacity="0.6" stroke-width="1.03515" shape-rendering="crispEdges"/>
</g>
<g filter="url(#filter6_d_63_163)">
<ellipse cx="66.1252" cy="53.9433" rx="26.4105" ry="17.071" transform="rotate(-93.3054 66.1252 53.9433)" fill="url(#paint23_linear_63_163)" fill-opacity="0.5" shape-rendering="crispEdges"/>
<path d="M64.6322 28.0934C69.1043 27.8351 73.3853 30.4023 76.6816 34.9089C79.9742 39.4105 82.2355 45.7925 82.6511 52.9888C83.0667 60.1851 81.5552 66.7851 78.8027 71.6358C76.0472 76.4919 72.0902 79.5348 67.6181 79.7931C63.146 80.0514 58.865 77.4842 55.5687 72.9776C52.2761 68.4761 50.0148 62.094 49.5992 54.8977C49.1836 47.7014 50.6951 41.1014 53.4476 36.2507C56.2031 31.3946 60.1601 28.3517 64.6322 28.0934Z" stroke="url(#paint24_linear_63_163)" stroke-opacity="0.6" stroke-width="1.03515" shape-rendering="crispEdges"/>
</g>
<ellipse cx="60.2057" cy="54.2846" rx="16.4385" ry="11.1417" transform="rotate(-93.3054 60.2057 54.2846)" fill="url(#paint25_linear_63_163)" fill-opacity="0.5"/>
<path d="M59.2877 38.3901C62.1367 38.2256 64.8741 39.7767 66.9898 42.5405C69.1033 45.3015 70.5556 49.2297 70.8121 53.672C71.0687 58.1143 70.0783 62.1836 68.2967 65.1696C66.5133 68.1586 63.9727 70.0145 61.1236 70.1791C58.2746 70.3436 55.5372 68.7925 53.4216 66.0287C51.308 63.2677 49.8557 59.3395 49.5992 54.8972C49.3426 50.4549 50.333 46.3856 52.1146 43.3996C53.8981 40.4106 56.4387 38.5547 59.2877 38.3901Z" stroke="url(#paint26_linear_63_163)" stroke-opacity="0.6" stroke-width="1.03515"/>
<ellipse cx="56.4085" cy="54.5042" rx="9.51712" ry="6.54838" transform="rotate(-93.3054 56.4085 54.5042)" fill="url(#paint27_linear_63_163)" fill-opacity="0.5"/>
<path d="M55.8896 45.5196C57.4759 45.428 59.0224 46.2758 60.2344 47.8363C61.4447 49.3946 62.283 51.6239 62.4293 54.1565C62.5755 56.6891 61.9995 59.0001 60.9766 60.6873C59.9523 62.3769 58.5137 63.3972 56.9274 63.4888C55.3411 63.5804 53.7945 62.7326 52.5826 61.1721C51.3723 59.6138 50.534 57.3845 50.3877 54.8519C50.2415 52.3193 50.8175 50.0083 51.8404 48.3211C52.8646 46.6315 54.3033 45.6112 55.8896 45.5196Z" stroke="url(#paint28_linear_63_163)" stroke-opacity="0.6" stroke-width="1.03515"/>
<circle cx="82.9181" cy="52.9732" r="35.1706" transform="rotate(-93.3054 82.9181 52.9732)" fill="url(#paint29_radial_63_163)" fill-opacity="0.3"/>
<g filter="url(#filter7_d_63_163)">
<path d="M21 95C21 83.9543 29.9543 75 41 75H201C212.046 75 221 83.9543 221 95V191C221 202.046 212.046 211 201 211H41C29.9543 211 21 202.046 21 191V95Z" fill="#393D5E"/>
</g>
</g>
<rect x="20.5" y="10.5" width="201" height="201" rx="20.5" stroke="url(#paint30_linear_63_163)"/>
</g>
<defs>
<filter id="filter0_d_63_163" x="0" y="0" width="242" height="242" filterUnits="userSpaceOnUse" color-interpolation-filters="sRGB">
<feFlood flood-opacity="0" result="BackgroundImageFix"/>
<feColorMatrix in="SourceAlpha" type="matrix" values="0 0 0 0 0 0 0 0 0 0 0 0 0 0 0 0 0 0 127 0" result="hardAlpha"/>
<feOffset dy="10"/>
<feGaussianBlur stdDeviation="10"/>
<feComposite in2="hardAlpha" operator="out"/>
<feColorMatrix type="matrix" values="0 0 0 0 0 0 0 0 0 0 0 0 0 0 0 0 0 0 0.5 0"/>
<feBlend mode="normal" in2="BackgroundImageFix" result="effect1_dropShadow_63_163"/>
<feBlend mode="normal" in="SourceGraphic" in2="effect1_dropShadow_63_163" result="shape"/>
</filter>
<filter id="filter1_f_63_163" x="121.991" y="-69.2698" width="119" height="200.973" filterUnits="userSpaceOnUse" color-interpolation-filters="sRGB">
<feFlood flood-opacity="0" result="BackgroundImageFix"/>
<feBlend mode="normal" in="SourceGraphic" in2="BackgroundImageFix" result="shape"/>
<feGaussianBlur stdDeviation="10.3515" result="effect1_foregroundBlur_63_163"/>
</filter>
<filter id="filter2_dd_63_163" x="102.508" y="4.83691" width="84.7869" height="84.7869" filterUnits="userSpaceOnUse" color-interpolation-filters="sRGB">
<feFlood flood-opacity="0" result="BackgroundImageFix"/>
<feColorMatrix in="SourceAlpha" type="matrix" values="0 0 0 0 0 0 0 0 0 0 0 0 0 0 0 0 0 0 127 0" result="hardAlpha"/>
<feOffset dy="-2.07031"/>
<feGaussianBlur stdDeviation="18.1152"/>
<feComposite in2="hardAlpha" operator="out"/>
<feColorMatrix type="matrix" values="0 0 0 0 0.371081 0 0 0 0 0.235903 0 0 0 0 0.658333 0 0 0 1 0"/>
<feBlend mode="normal" in2="BackgroundImageFix" result="effect1_dropShadow_63_163"/>
<feColorMatrix in="SourceAlpha" type="matrix" values="0 0 0 0 0 0 0 0 0 0 0 0 0 0 0 0 0 0 127 0" result="hardAlpha"/>
<feOffset dy="-2.07031"/>
<feGaussianBlur stdDeviation="10.3515"/>
<feComposite in2="hardAlpha" operator="out"/>
<feColorMatrix type="matrix" values="0 0 0 0 0.48825 0 0 0 0 0.372778 0 0 0 0 0.733333 0 0 0 1 0"/>
<feBlend mode="normal" in2="effect1_dropShadow_63_163" result="effect2_dropShadow_63_163"/>
<feBlend mode="normal" in="SourceGraphic" in2="effect2_dropShadow_63_163" result="shape"/>
</filter>
<filter id="filter3_dd_63_163" x="83.3906" y="-11.1885" width="81.5798" height="81.5798" filterUnits="userSpaceOnUse" color-interpolation-filters="sRGB">
<feFlood flood-opacity="0" result="BackgroundImageFix"/>
<feColorMatrix in="SourceAlpha" type="matrix" values="0 0 0 0 0 0 0 0 0 0 0 0 0 0 0 0 0 0 127 0" result="hardAlpha"/>
<feOffset dy="-2.07031"/>
<feGaussianBlur stdDeviation="18.1152"/>
<feComposite in2="hardAlpha" operator="out"/>
<feColorMatrix type="matrix" values="0 0 0 0 0.371081 0 0 0 0 0.235903 0 0 0 0 0.658333 0 0 0 1 0"/>
<feBlend mode="normal" in2="BackgroundImageFix" result="effect1_dropShadow_63_163"/>
<feColorMatrix in="SourceAlpha" type="matrix" values="0 0 0 0 0 0 0 0 0 0 0 0 0 0 0 0 0 0 127 0" result="hardAlpha"/>
<feOffset dy="-2.07031"/>
<feGaussianBlur stdDeviation="10.3515"/>
<feComposite in2="hardAlpha" operator="out"/>
<feColorMatrix type="matrix" values="0 0 0 0 0.48825 0 0 0 0 0.372778 0 0 0 0 0.733333 0 0 0 1 0"/>
<feBlend mode="normal" in2="effect1_dropShadow_63_163" result="effect2_dropShadow_63_163"/>
<feBlend mode="normal" in="SourceGraphic" in2="effect2_dropShadow_63_163" result="shape"/>
</filter>
<filter id="filter4_d_63_163" x="71.3209" y="15.0278" width="55.5296" height="76.093" filterUnits="userSpaceOnUse" color-interpolation-filters="sRGB">
<feFlood flood-opacity="0" result="BackgroundImageFix"/>
<feColorMatrix in="SourceAlpha" type="matrix" values="0 0 0 0 0 0 0 0 0 0 0 0 0 0 0 0 0 0 127 0" result="hardAlpha"/>
<feOffset dy="1.03515"/>
<feGaussianBlur stdDeviation="5.17577"/>
<feComposite in2="hardAlpha" operator="out"/>
<feColorMatrix type="matrix" values="0 0 0 0 0.440043 0 0 0 0 0.20092 0 0 0 0 0.679167 0 0 0 0.3 0"/>
<feBlend mode="normal" in2="BackgroundImageFix" result="effect1_dropShadow_63_163"/>
<feBlend mode="normal" in="SourceGraphic" in2="effect1_dropShadow_63_163" result="shape"/>
</filter>
<filter id="filter5_d_63_163" x="51.3624" y="15.2194" width="49.7865" height="78.3476" filterUnits="userSpaceOnUse" color-interpolation-filters="sRGB">
<feFlood flood-opacity="0" result="BackgroundImageFix"/>
<feColorMatrix in="SourceAlpha" type="matrix" values="0 0 0 0 0 0 0 0 0 0 0 0 0 0 0 0 0 0 127 0" result="hardAlpha"/>
<feOffset dy="1.03515"/>
<feGaussianBlur stdDeviation="2.58789"/>
<feComposite in2="hardAlpha" operator="out"/>
<feColorMatrix type="matrix" values="0 0 0 0 0.369333 0 0 0 0 0.0916667 0 0 0 0 0.5 0 0 0 0.15 0"/>
<feBlend mode="normal" in2="BackgroundImageFix" result="effect1_dropShadow_63_163"/>
<feBlend mode="normal" in="SourceGraphic" in2="effect1_dropShadow_63_163" result="shape"/>
</filter>
<filter id="filter6_d_63_163" x="42.285" y="20.8295" width="49.7505" height="68.2978" filterUnits="userSpaceOnUse" color-interpolation-filters="sRGB">
<feFlood flood-opacity="0" result="BackgroundImageFix"/>
<feColorMatrix in="SourceAlpha" type="matrix" values="0 0 0 0 0 0 0 0 0 0 0 0 0 0 0 0 0 0 127 0" result="hardAlpha"/>
<feOffset dx="1.03515" dy="1.03515"/>
<feGaussianBlur stdDeviation="3.88183"/>
<feComposite in2="hardAlpha" operator="out"/>
<feColorMatrix type="matrix" values="0 0 0 0 0.440043 0 0 0 0 0.20092 0 0 0 0 0.679167 0 0 0 0.2 0"/>
<feBlend mode="normal" in2="BackgroundImageFix" result="effect1_dropShadow_63_163"/>
<feBlend mode="normal" in="SourceGraphic" in2="effect1_dropShadow_63_163" result="shape"/>
</filter>
<filter id="filter7_d_63_163" x="11" y="72" width="220" height="156" filterUnits="userSpaceOnUse" color-interpolation-filters="sRGB">
<feFlood flood-opacity="0" result="BackgroundImageFix"/>
<feColorMatrix in="SourceAlpha" type="matrix" values="0 0 0 0 0 0 0 0 0 0 0 0 0 0 0 0 0 0 127 0" result="hardAlpha"/>
<feOffset dy="7"/>
<feGaussianBlur stdDeviation="5"/>
<feComposite in2="hardAlpha" operator="out"/>
<feColorMatrix type="matrix" values="0 0 0 0 0 0 0 0 0 0 0 0 0 0 0 0 0 0 0.1 0"/>
<feBlend mode="normal" in2="BackgroundImageFix" result="effect1_dropShadow_63_163"/>
<feBlend mode="normal" in="SourceGraphic" in2="effect1_dropShadow_63_163" result="shape"/>
</filter>
<linearGradient id="paint0_linear_63_163" x1="217.147" y1="56.6546" x2="188.309" y2="54.8301" gradientUnits="userSpaceOnUse">
<stop stop-color="white"/>
<stop offset="0.509629" stop-color="#FF96DB"/>
<stop offset="1" stop-color="#4AC9FF"/>
</linearGradient>
<linearGradient id="paint1_linear_63_163" x1="137.147" y1="-6.84701" x2="197.908" y2="47.4251" gradientUnits="userSpaceOnUse">
<stop offset="0.09375" stop-color="#2FB4FF"/>
<stop offset="0.484375" stop-color="#181EAD" stop-opacity="0.4"/>
<stop offset="0.998998" stop-color="#40F4FF"/>
</linearGradient>
<linearGradient id="paint2_linear_63_163" x1="155.758" y1="-15.0069" x2="187.344" y2="64.488" gradientUnits="userSpaceOnUse">
<stop stop-color="#2FB4FF"/>
<stop offset="0.163279" stop-color="#1C348A" stop-opacity="0.8"/>
<stop offset="0.614583" stop-color="#2D18AD" stop-opacity="0.6"/>
<stop offset="1" stop-color="#40F4FF"/>
</linearGradient>
<linearGradient id="paint3_linear_63_163" x1="195.788" y1="70.4692" x2="189.931" y2="51.449" gradientUnits="userSpaceOnUse">
<stop stop-color="white"/>
<stop offset="1" stop-color="#8AEAFF" stop-opacity="0"/>
</linearGradient>
<linearGradient id="paint4_linear_63_163" x1="137.147" y1="-6.84721" x2="210.026" y2="59.4469" gradientUnits="userSpaceOnUse">
<stop stop-color="#124593" stop-opacity="0.7"/>
<stop offset="0.693735" stop-color="#1C348A" stop-opacity="0.5"/>
<stop offset="0.880208" stop-color="#40F4FF"/>
<stop offset="1" stop-color="white"/>
</linearGradient>
<radialGradient id="paint5_radial_63_163" cx="0" cy="0" r="1" gradientUnits="userSpaceOnUse" gradientTransform="translate(181.491 31.2169) rotate(90) scale(38.5829 79.8849)">
<stop offset="0.0416667" stop-color="#9773FF"/>
<stop offset="0.5" stop-color="#739AFF" stop-opacity="0.8"/>
<stop offset="1" stop-color="#6978FF" stop-opacity="0"/>
</radialGradient>
<linearGradient id="paint6_linear_63_163" x1="167.025" y1="64.3884" x2="181.996" y2="46.9871" gradientUnits="userSpaceOnUse">
<stop stop-color="white"/>
<stop offset="0.509629" stop-color="#FF96DB"/>
<stop offset="1" stop-color="#4AC9FF"/>
</linearGradient>
<linearGradient id="paint7_linear_63_163" x1="167.574" y1="-28.2089" x2="170.704" y2="49.5703" gradientUnits="userSpaceOnUse">
<stop offset="0.09375" stop-color="#2FB4FF"/>
<stop offset="0.484375" stop-color="#181EAD" stop-opacity="0.4"/>
<stop offset="0.998998" stop-color="#40F4FF"/>
</linearGradient>
<linearGradient id="paint8_linear_63_163" x1="150.252" y1="-19.4367" x2="189.705" y2="52.141" gradientUnits="userSpaceOnUse">
<stop stop-color="#2FB4FF"/>
<stop offset="0.163279" stop-color="#1C348A" stop-opacity="0.8"/>
<stop offset="0.614583" stop-color="#2D18AD" stop-opacity="0.6"/>
<stop offset="1" stop-color="#40F4FF"/>
</linearGradient>
<linearGradient id="paint9_linear_63_163" x1="188.989" y1="62.0024" x2="178.517" y2="46.1306" gradientUnits="userSpaceOnUse">
<stop stop-color="white"/>
<stop offset="1" stop-color="#8AEAFF" stop-opacity="0"/>
</linearGradient>
<linearGradient id="paint10_linear_63_163" x1="167.574" y1="-28.2088" x2="172.212" y2="65.8105" gradientUnits="userSpaceOnUse">
<stop stop-color="#124593" stop-opacity="0.7"/>
<stop offset="0.693735" stop-color="#1C348A" stop-opacity="0.5"/>
<stop offset="0.880208" stop-color="#40F4FF"/>
<stop offset="1" stop-color="white"/>
</linearGradient>
<linearGradient id="paint11_linear_63_163" x1="144.901" y1="40.4583" x2="144.901" y2="62.073" gradientUnits="userSpaceOnUse">
<stop stop-color="white"/>
<stop offset="0.223958" stop-color="#6BE4FF"/>
<stop offset="0.623188" stop-color="#371B73" stop-opacity="0.6"/>
<stop offset="1" stop-color="#0A1153" stop-opacity="0.4"/>
</linearGradient>
<linearGradient id="paint12_linear_63_163" x1="124.18" y1="25.13" x2="124.18" y2="41.1208" gradientUnits="userSpaceOnUse">
<stop stop-color="white"/>
<stop offset="0.223958" stop-color="#6BE4FF"/>
<stop offset="0.623188" stop-color="#371B73" stop-opacity="0.6"/>
<stop offset="1" stop-color="#0A1153" stop-opacity="0.4"/>
</linearGradient>
<radialGradient id="paint13_radial_63_163" cx="0" cy="0" r="1" gradientUnits="userSpaceOnUse" gradientTransform="translate(89.2723 62.1392) rotate(90) scale(46.2699)">
<stop stop-color="#FF65C1"/>
<stop offset="1" stop-color="#FF65C1" stop-opacity="0"/>
</radialGradient>
<linearGradient id="paint14_linear_63_163" x1="99.0857" y1="34.6717" x2="99.0857" y2="69.4066" gradientUnits="userSpaceOnUse">
<stop stop-color="#13154D"/>
<stop offset="1" stop-color="#8E92EE" stop-opacity="0"/>
</linearGradient>
<linearGradient id="paint15_linear_63_163" x1="100.478" y1="38.167" x2="117.879" y2="35.5904" gradientUnits="userSpaceOnUse">
<stop stop-color="white" stop-opacity="0"/>
<stop offset="1" stop-color="white"/>
</linearGradient>
<radialGradient id="paint16_radial_63_163" cx="0" cy="0" r="1" gradientUnits="userSpaceOnUse" gradientTransform="translate(47.7477 65.7673) rotate(-19.6638) scale(74.6972)">
<stop offset="0.249306" stop-color="white"/>
<stop offset="0.48315" stop-color="#FF8FED" stop-opacity="0.5"/>
<stop offset="0.627037" stop-color="#220C7A" stop-opacity="0.5"/>
</radialGradient>
<linearGradient id="paint17_linear_63_163" x1="57.1445" y1="56.9134" x2="122.317" y2="49.5573" gradientUnits="userSpaceOnUse">
<stop stop-color="white"/>
<stop offset="1" stop-color="#12178E" stop-opacity="0.4"/>
</linearGradient>
<linearGradient id="paint18_linear_63_163" x1="117.003" y1="45.5364" x2="92.8227" y2="57.354" gradientUnits="userSpaceOnUse">
<stop offset="0.0011346" stop-color="white"/>
<stop offset="1" stop-color="white" stop-opacity="0"/>
</linearGradient>
<radialGradient id="paint19_radial_63_163" cx="0" cy="0" r="1" gradientUnits="userSpaceOnUse" gradientTransform="translate(63.2141 66.2024) rotate(-14.8494) scale(51.6193)">
<stop offset="0.239373" stop-color="white"/>
<stop offset="0.410099" stop-color="#FFCEF1"/>
<stop offset="0.67492" stop-color="#B6B9FF"/>
<stop offset="0.861176" stop-color="#FFA8E7"/>
<stop offset="1" stop-color="white"/>
</radialGradient>
<radialGradient id="paint20_radial_63_163" cx="0" cy="0" r="1" gradientUnits="userSpaceOnUse" gradientTransform="translate(107.599 73.11) rotate(-121.724) scale(29.6813)">
<stop stop-color="#3F52FF"/>
<stop offset="1" stop-color="#3F52FF" stop-opacity="0"/>
</radialGradient>
<linearGradient id="paint21_linear_63_163" x1="42.9531" y1="52.0036" x2="110.291" y2="54.0956" gradientUnits="userSpaceOnUse">
<stop stop-color="white"/>
<stop offset="1" stop-color="#5653FF" stop-opacity="0.2"/>
</linearGradient>
<linearGradient id="paint22_linear_63_163" x1="109.983" y1="55.8996" x2="78.1043" y2="59.8603" gradientUnits="userSpaceOnUse">
<stop stop-color="white"/>
<stop offset="1" stop-color="white" stop-opacity="0"/>
</linearGradient>
<linearGradient id="paint23_linear_63_163" x1="66.1251" y1="36.8722" x2="66.1251" y2="71.0143" gradientUnits="userSpaceOnUse">
<stop stop-color="#13154D" stop-opacity="0.5"/>
<stop offset="1" stop-color="#8E92EE" stop-opacity="0"/>
</linearGradient>
<linearGradient id="paint24_linear_63_163" x1="90.3017" y1="47.9232" x2="52.4087" y2="46.6028" gradientUnits="userSpaceOnUse">
<stop stop-color="white"/>
<stop offset="1" stop-color="white" stop-opacity="0"/>
</linearGradient>
<linearGradient id="paint25_linear_63_163" x1="60.2057" y1="43.1429" x2="60.2057" y2="65.4263" gradientUnits="userSpaceOnUse">
<stop stop-color="#13154D"/>
<stop offset="1" stop-color="#8E92EE" stop-opacity="0"/>
</linearGradient>
<linearGradient id="paint26_linear_63_163" x1="87.3168" y1="46.1308" x2="49.0825" y2="54.927" gradientUnits="userSpaceOnUse">
<stop stop-color="white"/>
<stop offset="1" stop-color="white" stop-opacity="0"/>
</linearGradient>
<linearGradient id="paint27_linear_63_163" x1="56.4085" y1="47.9558" x2="56.4085" y2="61.0526" gradientUnits="userSpaceOnUse">
<stop stop-color="#13154D"/>
<stop offset="1" stop-color="#8E92EE" stop-opacity="0"/>
</linearGradient>
<linearGradient id="paint28_linear_63_163" x1="76.4348" y1="48.2001" x2="49.871" y2="54.8818" gradientUnits="userSpaceOnUse">
<stop stop-color="white"/>
<stop offset="1" stop-color="white" stop-opacity="0"/>
</linearGradient>
<radialGradient id="paint29_radial_63_163" cx="0" cy="0" r="1" gradientUnits="userSpaceOnUse" gradientTransform="translate(47.7476 65.7673) rotate(-19.6638) scale(74.6972)">
<stop offset="0.249306" stop-color="white"/>
<stop offset="0.48315" stop-color="#FF8FED" stop-opacity="0.5"/>
<stop offset="0.627037" stop-color="#220C7A" stop-opacity="0"/>
</radialGradient>
<linearGradient id="paint30_linear_63_163" x1="23.1875" y1="-4.13157" x2="274.009" y2="66.2019" gradientUnits="userSpaceOnUse">
<stop stop-color="#01B7C5"/>
<stop offset="1" stop-color="#782C96"/>
</linearGradient>
<clipPath id="clip0_63_163">
<rect x="21" y="11" width="200" height="200" rx="20" fill="white"/>
</clipPath>
</defs>
</svg>
