<svg width="40" height="40" viewBox="0 0 40 40" fill="none" xmlns="http://www.w3.org/2000/svg">
<path fill-rule="evenodd" clip-rule="evenodd" d="M20 40C31.0457 40 40 31.0457 40 20C40 8.95431 31.0457 0 20 0C8.95431 0 0 8.95431 0 20C0 31.0457 8.95431 40 20 40Z" fill="black" fill-opacity="0.2"/>
<path d="M14.4 12C9.7625 12 6 15.8073 6 20.5C6 25.1927 9.7625 29 14.4 29H25.6C30.2375 29 34 25.1927 34 20.5C34 15.8073 30.2375 12 25.6 12H14.4ZM27.7 16.6042C28.1641 16.6042 28.6092 16.7907 28.9374 17.1228C29.2656 17.4549 29.45 17.9053 29.45 18.375C29.45 18.8447 29.2656 19.2951 28.9374 19.6272C28.6092 19.9593 28.1641 20.1458 27.7 20.1458C27.2359 20.1458 26.7908 19.9593 26.4626 19.6272C26.1344 19.2951 25.95 18.8447 25.95 18.375C25.95 17.9053 26.1344 17.4549 26.4626 17.1228C26.7908 16.7907 27.2359 16.6042 27.7 16.6042ZM23.15 22.625C23.15 22.1553 23.3344 21.7049 23.6626 21.3728C23.9908 21.0407 24.4359 20.8542 24.9 20.8542C25.3641 20.8542 25.8092 21.0407 26.1374 21.3728C26.4656 21.7049 26.65 22.1553 26.65 22.625C26.65 23.0947 26.4656 23.5451 26.1374 23.8772C25.8092 24.2093 25.3641 24.3958 24.9 24.3958C24.4359 24.3958 23.9908 24.2093 23.6626 23.8772C23.3344 23.5451 23.15 23.0947 23.15 22.625ZM13.35 18.0208C13.35 17.432 13.8181 16.9583 14.4 16.9583C14.9819 16.9583 15.45 17.432 15.45 18.0208V19.4375H16.85C17.4319 19.4375 17.9 19.9112 17.9 20.5C17.9 21.0888 17.4319 21.5625 16.85 21.5625H15.45V22.9792C15.45 23.568 14.9819 24.0417 14.4 24.0417C13.8181 24.0417 13.35 23.568 13.35 22.9792V21.5625H11.95C11.3681 21.5625 10.9 21.0888 10.9 20.5C10.9 19.9112 11.3681 19.4375 11.95 19.4375H13.35V18.0208Z" fill="#8C74E0"/>
</svg>
