<svg width="15" height="16" viewBox="0 0 15 16" fill="none" xmlns="http://www.w3.org/2000/svg">
<path d="M1 5.59383C2.73683 4.36416 4.33298 2.75608 6.52219 2.44809C7.89984 2.25426 9.30317 2.51341 10.5209 3.18646C11.7385 3.85952 12.7043 4.91004 13.273 6.17967C13.8415 7.44937 13.982 8.86954 13.6734 10.226C13.3646 11.5825 12.6235 12.8018 11.5614 13.7005C10.4992 14.5991 9.17387 15.1283 7.78499 15.2082C6.39594 15.2881 5.0186 14.9145 3.86044 14.1437C2.70228 13.3729 1.82602 12.2465 1.36371 10.9344" stroke="white" stroke-width="1.5" stroke-linecap="round" stroke-linejoin="round"/>
<path d="M1 5.59383C2.73683 4.36416 4.33298 2.75608 6.52219 2.44809C7.89984 2.25426 9.30317 2.51341 10.5209 3.18646C11.7385 3.85952 12.7043 4.91004 13.273 6.17967C13.8415 7.44937 13.982 8.86954 13.6734 10.226C13.3646 11.5825 12.6235 12.8018 11.5614 13.7005C10.4992 14.5991 9.17387 15.1283 7.78499 15.2082C6.39594 15.2881 5.0186 14.9145 3.86044 14.1437C2.70228 13.3729 1.82602 12.2465 1.36371 10.9344" stroke="white" stroke-width="1.5" stroke-linecap="round" stroke-linejoin="round"/>
<path d="M1 0.78125V5.59375H5.8125" stroke="white" stroke-width="1.5" stroke-linecap="round" stroke-linejoin="round"/>
</svg>
