<svg width="24" height="24" viewBox="0 0 24 24" fill="none" xmlns="http://www.w3.org/2000/svg">
<path d="M15.442 2.12414C15.9554 2.35628 16.2857 2.86521 16.2857 3.4277V20.5703C16.2857 21.1328 15.9554 21.6417 15.442 21.8739C14.9286 22.106 14.3259 22.0123 13.9063 21.6373L7.88393 16.2847H4.85714C3.28125 16.2847 2 15.0034 2 13.4276V10.5705C2 8.99459 3.28125 7.71336 4.85714 7.71336H7.88393L13.9063 2.36075C14.3259 1.98575 14.9286 1.89647 15.442 2.12414ZM20.4196 8.67317C21.3795 9.45887 22 10.6553 22 11.999C22 13.3427 21.3795 14.5392 20.4196 15.3249C19.9598 15.6999 19.2857 15.6284 18.9107 15.1686C18.5357 14.7088 18.6071 14.0347 19.067 13.6597C19.5491 13.2669 19.8571 12.6686 19.8571 11.999C19.8571 11.3294 19.5491 10.7312 19.067 10.3339C18.6071 9.95886 18.5402 9.28476 18.9107 8.82495C19.2812 8.36513 19.9598 8.29817 20.4196 8.6687V8.67317Z" fill="white" fill-opacity="0.7"/>
</svg>
