<svg width="50" height="50" viewBox="0 0 50 50" fill="none" xmlns="http://www.w3.org/2000/svg">
<g filter="url(#filter0_f_6_286)">
<circle cx="25" cy="25" r="20.5" stroke="url(#paint0_linear_6_286)" style="mix-blend-mode:overlay"/>
</g>
<circle cx="25" cy="25" r="19.5" fill="black" fill-opacity="0.2"/>
<circle cx="25" cy="25" r="19.5" stroke="url(#paint1_linear_6_286)" style="mix-blend-mode:overlay"/>
<path d="M20.125 17.0625C20.125 15.7198 20.6386 14.4322 21.5529 13.4828C22.4671 12.5334 23.7071 12 25 12C26.2929 12 27.5329 12.5334 28.4471 13.4828C29.3614 14.4322 29.875 15.7198 29.875 17.0625C29.875 18.4052 29.3614 19.6928 28.4471 20.6422C27.5329 21.5916 26.2929 22.125 25 22.125C23.7071 22.125 22.4671 21.5916 21.5529 20.6422C20.6386 19.6928 20.125 18.4052 20.125 17.0625ZM24.1875 25.0781V39L21.7297 37.7238C20.6684 37.1754 19.5207 36.8273 18.3375 36.7061L13.4625 36.1998C12.6348 36.1102 12 35.3877 12 34.5176V23.8125C12 22.8791 12.7262 22.125 13.625 22.125H15.1637C18.3934 22.125 21.5418 23.1586 24.1875 25.0781ZM25.8125 39V25.0781C28.4582 23.1586 31.6066 22.125 34.8363 22.125H36.375C37.2738 22.125 38 22.8791 38 23.8125V34.5176C38 35.3824 37.3652 36.1102 36.5375 36.1945L31.6625 36.7008C30.4844 36.8221 29.3316 37.1701 28.2703 37.7186L25.8125 39Z" fill="#8C74E0"/>
<defs>
<filter id="filter0_f_6_286" x="0" y="0" width="50" height="50" filterUnits="userSpaceOnUse" color-interpolation-filters="sRGB">
<feFlood flood-opacity="0" result="BackgroundImageFix"/>
<feBlend mode="normal" in="SourceGraphic" in2="BackgroundImageFix" result="shape"/>
<feGaussianBlur stdDeviation="2" result="effect1_foregroundBlur_6_286"/>
</filter>
<linearGradient id="paint0_linear_6_286" x1="6" y1="9.5" x2="47.5" y2="41.5" gradientUnits="userSpaceOnUse">
<stop stop-color="#C322FF"/>
<stop offset="1" stop-color="#00BAE1"/>
</linearGradient>
<linearGradient id="paint1_linear_6_286" x1="6" y1="9.5" x2="47.5" y2="41.5" gradientUnits="userSpaceOnUse">
<stop stop-color="#E8A9FF"/>
<stop offset="1" stop-color="#53E1FF"/>
</linearGradient>
</defs>
</svg>
