<svg width="40" height="40" viewBox="0 0 40 40" fill="none" xmlns="http://www.w3.org/2000/svg">
<path fill-rule="evenodd" clip-rule="evenodd" d="M20 40C31.0457 40 40 31.0457 40 20C40 8.95431 31.0457 0 20 0C8.95431 0 0 8.95431 0 20C0 31.0457 8.95431 40 20 40Z" fill="black" fill-opacity="0.2"/>
<path d="M15.125 12.0625C15.125 10.7198 15.6386 9.43217 16.5529 8.48277C17.4671 7.53337 18.7071 7 20 7C21.2929 7 22.5329 7.53337 23.4471 8.48277C24.3614 9.43217 24.875 10.7198 24.875 12.0625C24.875 13.4052 24.3614 14.6928 23.4471 15.6422C22.5329 16.5916 21.2929 17.125 20 17.125C18.7071 17.125 17.4671 16.5916 16.5529 15.6422C15.6386 14.6928 15.125 13.4052 15.125 12.0625ZM19.1875 20.0781V34L16.7297 32.7238C15.6684 32.1754 14.5207 31.8273 13.3375 31.7061L8.4625 31.1998C7.63477 31.1102 7 30.3877 7 29.5176V18.8125C7 17.8791 7.72617 17.125 8.625 17.125H10.1637C13.3934 17.125 16.5418 18.1586 19.1875 20.0781ZM20.8125 34V20.0781C23.4582 18.1586 26.6066 17.125 29.8363 17.125H31.375C32.2738 17.125 33 17.8791 33 18.8125V29.5176C33 30.3824 32.3652 31.1102 31.5375 31.1945L26.6625 31.7008C25.4844 31.8221 24.3316 32.1701 23.2703 32.7186L20.8125 34Z" fill="#8C74E0"/>
</svg>
