<svg width="40" height="40" viewBox="0 0 40 40" fill="none" xmlns="http://www.w3.org/2000/svg">
<path fill-rule="evenodd" clip-rule="evenodd" d="M20 40C31.0457 40 40 31.0457 40 20C40 8.95431 31.0457 0 20 0C8.95431 0 0 8.95431 0 20C0 31.0457 8.95431 40 20 40Z" fill="black" fill-opacity="0.2"/>
<path d="M9.5625 11.6875C9.5625 9.09961 11.6621 7 14.25 7H18.9375V16.3115C18.9375 16.9658 19.6943 17.332 20.207 16.9219L22.8438 14.8125L25.4805 16.9219C25.9932 17.332 26.75 16.9658 26.75 16.3115V7H28.3125H29.875C30.7393 7 31.4375 7.69824 31.4375 8.5625V24.1875C31.4375 25.0518 30.7393 25.75 29.875 25.75V28.875C30.7393 28.875 31.4375 29.5732 31.4375 30.4375C31.4375 31.3018 30.7393 32 29.875 32H28.3125H14.25C11.6621 32 9.5625 29.9004 9.5625 27.3125V11.6875ZM12.6875 27.3125C12.6875 28.1768 13.3857 28.875 14.25 28.875H26.75V25.75H14.25C13.3857 25.75 12.6875 26.4482 12.6875 27.3125Z" fill="#8C74E0"/>
</svg>
