<svg width="983" height="855" viewBox="0 0 983 855" fill="none" xmlns="http://www.w3.org/2000/svg">
<g clip-path="url(#clip0_714_3067)">
<path d="M100.356 49L1023.53 465.409L1009.78 656.673L87.8339 227.987L100.356 49Z" fill="url(#paint0_linear_714_3067)" fill-opacity="0.3"/>
<path d="M100.386 92.459L1023.56 508.868L1009.81 656.92L87.864 228.234L100.386 92.459Z" fill="url(#paint1_linear_714_3067)" fill-opacity="0.2"/>
<path d="M341.271 514.406L434.908 548.031L435.251 390.265L341.271 346.047V514.406Z" fill="url(#paint2_linear_714_3067)" fill-opacity="0.8"/>
<path d="M435.252 556.946L288.919 644.153V321.289L435.252 390.281V556.946Z" fill="url(#paint3_linear_714_3067)" fill-opacity="0.8"/>
<g style="mix-blend-mode:lighten">
<ellipse cx="473.49" cy="674.305" rx="400.49" ry="193.429" fill="url(#paint4_radial_714_3067)" fill-opacity="0.6"/>
</g>
<path d="M341.277 514.417L288.919 644.153V321.289L341.277 346.037V514.417Z" fill="url(#paint5_linear_714_3067)"/>
<path d="M414.548 246.434L434.023 142.301L622.9 142.73L493.071 253.5L414.548 246.434Z" fill="url(#paint6_linear_714_3067)" fill-opacity="0.8"/>
<g opacity="0.7">
<path d="M493.068 253.498L414.543 246.435L341.272 346.033V514.409L424.193 512.796L492.397 416.43L493.068 253.498Z" fill="url(#paint7_linear_714_3067)"/>
<path d="M493.068 253.498L414.543 246.435L341.272 346.033V514.409L424.193 512.796L492.397 416.43L493.068 253.498Z" fill="url(#paint8_radial_714_3067)"/>
<path d="M493.068 253.498L414.543 246.435L341.272 346.033V514.409L424.193 512.796L492.397 416.43L493.068 253.498Z" fill="url(#paint9_linear_714_3067)"/>
</g>
<path d="M414.543 246.435L508.174 280.062L435.259 390.279L341.285 346.039L414.543 246.435Z" fill="url(#paint10_linear_714_3067)" fill-opacity="0.8"/>
<path d="M492.212 416.504L586.574 459.73L513.308 552.239L424.195 512.788L492.212 416.504Z" fill="url(#paint11_linear_714_3067)" fill-opacity="0.8"/>
<path d="M414.543 246.436L508.174 280.064L586.701 287.131L493.064 253.5L414.543 246.436Z" fill="url(#paint12_linear_714_3067)" fill-opacity="0.8"/>
<path d="M341.249 514.395L435.266 556.976L513.413 552.295L424.202 512.797L341.249 514.395Z" fill="url(#paint13_linear_714_3067)"/>
<path d="M508.418 280.531L434.024 142.301L288.919 321.288L435.267 390.265L508.418 280.531Z" fill="url(#paint14_linear_714_3067)" fill-opacity="0.9"/>
<path d="M586.525 459.764L622.525 476.582V142.055L586.617 287.16L586.525 459.764Z" fill="url(#paint15_linear_714_3067)" fill-opacity="0.9"/>
<path d="M435.252 556.96L288.919 644.152L478.464 671.651L513.267 552.234L435.252 556.96Z" fill="url(#paint16_linear_714_3067)" fill-opacity="0.9"/>
<path d="M586.555 459.732L622.508 476.581L478.462 671.65L513.265 552.233L586.555 459.732Z" fill="url(#paint17_linear_714_3067)"/>
<path d="M508.417 280.531L434.023 142.301H622.586L586.617 287.16L508.417 280.531Z" fill="url(#paint18_linear_714_3067)"/>
<path d="M508.417 280.531L434.023 142.301H622.586L586.617 287.16L508.417 280.531Z" fill="url(#paint19_linear_714_3067)" fill-opacity="0.6"/>
<path d="M289.164 644.399L341.338 514.271L435.253 556.962L289.164 644.399Z" fill="url(#paint20_linear_714_3067)"/>
<path d="M101.829 406.576L1025 822.986L1009.78 656.888L87.8339 228.203L101.829 406.576Z" fill="url(#paint21_linear_714_3067)" fill-opacity="0.4"/>
<path d="M101.829 367.415L1025 783.825L1009.78 656.888L87.8339 228.203L101.829 367.415Z" fill="url(#paint22_linear_714_3067)" fill-opacity="0.3"/>
<g opacity="0.7">
<path d="M586.702 287.126L508.357 280.064L435.252 390.255V556.961L513.427 552.234L586.557 459.677L586.702 287.126Z" fill="url(#paint23_linear_714_3067)"/>
<path d="M586.702 287.126L508.357 280.064L435.252 390.255V556.961L513.427 552.234L586.557 459.677L586.702 287.126Z" fill="url(#paint24_radial_714_3067)"/>
<path d="M586.702 287.126L508.357 280.064L435.252 390.255V556.961L513.427 552.234L586.557 459.677L586.702 287.126Z" fill="url(#paint25_linear_714_3067)"/>
</g>
</g>
<defs>
<linearGradient id="paint0_linear_714_3067" x1="222.492" y1="171.496" x2="919.779" y2="580.049" gradientUnits="userSpaceOnUse">
<stop stop-color="#9492ED" stop-opacity="0"/>
<stop offset="0.546875" stop-color="#7674EC"/>
<stop offset="1" stop-color="#817FDF" stop-opacity="0"/>
</linearGradient>
<linearGradient id="paint1_linear_714_3067" x1="222.522" y1="171.742" x2="919.809" y2="580.296" gradientUnits="userSpaceOnUse">
<stop stop-color="#232183" stop-opacity="0"/>
<stop offset="0.546875" stop-color="#232183"/>
<stop offset="1" stop-color="#232183" stop-opacity="0"/>
</linearGradient>
<linearGradient id="paint2_linear_714_3067" x1="341.271" y1="382.88" x2="437.63" y2="390.909" gradientUnits="userSpaceOnUse">
<stop stop-color="#548DD1"/>
<stop offset="0.59375" stop-color="#E39DE5"/>
<stop offset="1" stop-color="white"/>
</linearGradient>
<linearGradient id="paint3_linear_714_3067" x1="272.333" y1="457.179" x2="484.173" y2="504.212" gradientUnits="userSpaceOnUse">
<stop offset="0.0340296" stop-color="#2B79ED" stop-opacity="0.8"/>
<stop offset="0.791667" stop-color="#FCA6EF" stop-opacity="0.8"/>
<stop offset="1" stop-color="white"/>
</linearGradient>
<radialGradient id="paint4_radial_714_3067" cx="0" cy="0" r="1" gradientUnits="userSpaceOnUse" gradientTransform="translate(473.49 674.305) rotate(90) scale(193.429 400.49)">
<stop offset="0.0729167" stop-color="white"/>
<stop offset="0.34375" stop-color="#A873FF" stop-opacity="0.8"/>
<stop offset="1" stop-color="#0E7DFF" stop-opacity="0"/>
</radialGradient>
<linearGradient id="paint5_linear_714_3067" x1="341.277" y1="337.359" x2="316.9" y2="589.996" gradientUnits="userSpaceOnUse">
<stop stop-color="#2295D6"/>
<stop offset="1" stop-color="#2249D6" stop-opacity="0.3"/>
</linearGradient>
<linearGradient id="paint6_linear_714_3067" x1="420.967" y1="167.664" x2="493.098" y2="267.5" gradientUnits="userSpaceOnUse">
<stop stop-color="#4B86FA" stop-opacity="0.8"/>
<stop offset="0.534769" stop-color="#FCA6EF" stop-opacity="0.8"/>
<stop offset="0.716558" stop-color="white"/>
</linearGradient>
<linearGradient id="paint7_linear_714_3067" x1="497.978" y1="287.349" x2="236.334" y2="466.331" gradientUnits="userSpaceOnUse">
<stop stop-color="#324BCC"/>
<stop offset="1" stop-color="white" stop-opacity="0.8"/>
</linearGradient>
<radialGradient id="paint8_radial_714_3067" cx="0" cy="0" r="1" gradientUnits="userSpaceOnUse" gradientTransform="translate(419.625 583.576) rotate(-90) scale(206.763 118.96)">
<stop stop-color="#00F0FF"/>
<stop offset="1" stop-color="#00F0FF" stop-opacity="0"/>
</radialGradient>
<linearGradient id="paint9_linear_714_3067" x1="341.272" y1="484.154" x2="419.625" y2="391.837" gradientUnits="userSpaceOnUse">
<stop stop-color="white"/>
<stop offset="1" stop-color="white" stop-opacity="0"/>
</linearGradient>
<linearGradient id="paint10_linear_714_3067" x1="386.272" y1="281.918" x2="465.185" y2="332.979" gradientUnits="userSpaceOnUse">
<stop stop-color="#4078CB"/>
<stop offset="0.59375" stop-color="#E39DE5"/>
<stop offset="1" stop-color="white"/>
</linearGradient>
<linearGradient id="paint11_linear_714_3067" x1="580.601" y1="466.391" x2="419.666" y2="520.407" gradientUnits="userSpaceOnUse">
<stop stop-color="#4078CB"/>
<stop offset="1" stop-color="#E39DE5"/>
</linearGradient>
<linearGradient id="paint12_linear_714_3067" x1="476.789" y1="251.746" x2="474.969" y2="279.813" gradientUnits="userSpaceOnUse">
<stop stop-color="#4078CB"/>
<stop offset="0.59375" stop-color="#E39DE5"/>
<stop offset="1" stop-color="white"/>
</linearGradient>
<linearGradient id="paint13_linear_714_3067" x1="403.5" y1="516.911" x2="401.68" y2="544.979" gradientUnits="userSpaceOnUse">
<stop stop-color="#4078CB"/>
<stop offset="0.59375" stop-color="#E39DE5"/>
<stop offset="1" stop-color="white"/>
</linearGradient>
<linearGradient id="paint14_linear_714_3067" x1="339.423" y1="252.308" x2="446.568" y2="362.445" gradientUnits="userSpaceOnUse">
<stop offset="0.0729167" stop-color="#4B86FA" stop-opacity="0.8"/>
<stop offset="0.791667" stop-color="#FCA6EF" stop-opacity="0.8"/>
<stop offset="1" stop-color="white"/>
</linearGradient>
<linearGradient id="paint15_linear_714_3067" x1="629.707" y1="142.055" x2="712.829" y2="179.106" gradientUnits="userSpaceOnUse">
<stop offset="0.00889157" stop-color="#1D2A9B" stop-opacity="0.8"/>
<stop offset="0.645598" stop-color="#FCA6EF" stop-opacity="0.8"/>
<stop offset="1" stop-color="white"/>
</linearGradient>
<linearGradient id="paint16_linear_714_3067" x1="288.919" y1="628.522" x2="529.999" y2="591.971" gradientUnits="userSpaceOnUse">
<stop offset="0.0340296" stop-color="#4B5CFA" stop-opacity="0.8"/>
<stop offset="0.791667" stop-color="#FCA6EF" stop-opacity="0.8"/>
<stop offset="1" stop-color="white"/>
</linearGradient>
<linearGradient id="paint17_linear_714_3067" x1="594.35" y1="533.174" x2="542.577" y2="505.66" gradientUnits="userSpaceOnUse">
<stop offset="0.0340296" stop-color="#4B5CFA" stop-opacity="0.8"/>
<stop offset="0.539474" stop-color="#FCA6EF" stop-opacity="0.8"/>
<stop offset="1" stop-color="white"/>
</linearGradient>
<linearGradient id="paint18_linear_714_3067" x1="616.979" y1="191.121" x2="538.517" y2="303.655" gradientUnits="userSpaceOnUse">
<stop stop-color="#0A3892"/>
<stop offset="0.536458" stop-color="#29B2ED" stop-opacity="0.8"/>
<stop offset="0.967948" stop-color="white"/>
</linearGradient>
<linearGradient id="paint19_linear_714_3067" x1="584.53" y1="294.526" x2="522.657" y2="184.531" gradientUnits="userSpaceOnUse">
<stop stop-color="#FF439D"/>
<stop offset="1" stop-color="#FF43D6" stop-opacity="0"/>
</linearGradient>
<linearGradient id="paint20_linear_714_3067" x1="331.149" y1="507.642" x2="435.374" y2="579.335" gradientUnits="userSpaceOnUse">
<stop stop-color="#5BE2FF"/>
<stop offset="1" stop-color="#FF93E1" stop-opacity="0.6"/>
</linearGradient>
<linearGradient id="paint21_linear_714_3067" x1="222.492" y1="171.711" x2="919.779" y2="580.265" gradientUnits="userSpaceOnUse">
<stop stop-color="#232183" stop-opacity="0"/>
<stop offset="0.546875" stop-color="#232183"/>
<stop offset="1" stop-color="#232183" stop-opacity="0"/>
</linearGradient>
<linearGradient id="paint22_linear_714_3067" x1="222.492" y1="171.711" x2="919.779" y2="580.265" gradientUnits="userSpaceOnUse">
<stop stop-color="#232183" stop-opacity="0"/>
<stop offset="0.546875" stop-color="#8A88EC"/>
<stop offset="1" stop-color="#232183" stop-opacity="0"/>
</linearGradient>
<linearGradient id="paint23_linear_714_3067" x1="591.601" y1="320.969" x2="330.211" y2="499.41" gradientUnits="userSpaceOnUse">
<stop stop-color="#324BCC"/>
<stop offset="1" stop-color="white" stop-opacity="0.8"/>
</linearGradient>
<radialGradient id="paint24_radial_714_3067" cx="0" cy="0" r="1" gradientUnits="userSpaceOnUse" gradientTransform="translate(513.427 617.131) rotate(-90) scale(206.717 118.689)">
<stop stop-color="#00F0FF"/>
<stop offset="1" stop-color="#00F0FF" stop-opacity="0"/>
</radialGradient>
<linearGradient id="paint25_linear_714_3067" x1="460.094" y1="523.299" x2="524.931" y2="439.969" gradientUnits="userSpaceOnUse">
<stop stop-color="white"/>
<stop offset="1" stop-color="white" stop-opacity="0"/>
</linearGradient>
<clipPath id="clip0_714_3067">
<rect width="983" height="855" fill="white"/>
</clipPath>
</defs>
</svg>
